<?xml version="1.0" encoding="UTF-8"?>
<svg width="100mm" height="100mm" version="1.1" viewBox="0 0 100 100" xmlns="http://www.w3.org/2000/svg">
<rect width="100" height="100" fill="rgba(255,255,255,1)" />
 <path d="m20.693 46.815s-12.947 3.6013-16.144 8.104c-2.6496 3.7308-1.5617 8.7226 2.4395 11.193 4.0012 2.4706 9.3548 1.4561 12.004-2.2747 3.1978-4.5027 1.7005-17.023 1.7005-17.023z"/>
 <path d="m51.371 36.036-4.4769 0.06051c-5.0055 0.0109-9.1038 2.6778-9.0833 5.955l-13.692 2.9575 0.0143 3.0069 13.681 2.9278c0.01665 3.2755 4.1728 5.8776 9.1784 5.8668l4.4769-0.06051z"/>
 <path d="m92.038 32.358c-1.3481-0.59113-2.8957-0.87832-4.6406-0.87453l-25.336 0.07517c-4.653 0.01013-8.4591 2.4908-8.4436 5.5356l0.15633 17.631c0.01548 3.0449 3.7692 5.4162 8.4222 5.406l25.263-0.0033c4.653-0.01013 8.4591-2.4908 8.4437-5.5357l-0.15634-17.631c-0.0098-1.903-1.4621-3.6181-3.709-4.6033z" fill="#fff" stroke="#000" stroke-width="1.5"/>
 <text transform="scale(.76758 1.3028)" x="75.680367" y="41.272301" fill="#000000" font-family="sans-serif" font-size="15.718px" font-weight="bold" stroke-width=".36839" style="line-height:2" xml:space="preserve"><tspan x="75.680367" y="41.272301" font-family="sans-serif" font-size="15.718px" font-weight="bold" stroke-width=".36839">GLUE</tspan></text>
</svg>
