<?xml version="1.0" encoding="UTF-8"?>
<svg width="100mm" height="100mm" version="1.1" viewBox="0 0 100 100" xmlns="http://www.w3.org/2000/svg">
<rect width="100" height="100" fill="rgba(255,255,255,1)" />
 <g stroke-width=".95728">
  <path d="m3.0623 43.457c-0.076253 0.10708-0.0789 0.27383-0.027593 0.50241 0.19069 0.88438 2.8644 2.1874 5.8424 2.8393 3.8066 0.86493 11.134-0.04388 16.58-2.0237 1.1617-0.41461 2.1198-0.7034 2.1302-0.62209 6.6e-4 7e-3 -0.0016 0.01053-0.0067 0.01755-0.20034 0.28121-4.6888 1.8717-6.6583 2.3282-3.8382 0.90748-9.0572 1.2251-11.616 0.72053-0.4014-0.0818-0.66653-0.0316-0.77849 0.12498-0.010063 0.01404-0.019016 0.02808-0.026847 0.04564-0.11011 0.25066 0.044484 0.44937 0.88126 1.131 0.89439 0.7285 1.2089 0.8631 2.5081 1.1194 0.82158 0.15868 2.3572 0.24329 3.4227 0.18782 3.5552-0.19028 9.6398-1.7227 12.622-3.1572 1.7403-0.84256 2.1723-1.001 2.2144-0.77214 3.91e-4 7e-3 -0.0029 0.01404-0.0097 0.02457-0.17227 0.24188-2.6344 1.3657-4.6545 2.1064-1.9386 0.70522-5.1314 1.5067-7.8513 1.9644-1.5785 0.26716-2.3574 0.47029-2.5469 0.73626-0.1248 0.17518 6e-3 0.37764 0.33264 0.64365 1.0099 0.82262 2.89 0.87163 6.3429 0.18466 2.8219-0.56898 5.0617-1.3448 7.9066-2.7457 1.1046-0.55837 2.0124-0.93668 2.0229-0.85531 0.0022 7e-3 -0.0013 0.01755-0.01012 0.02808-0.07581 0.10637-0.54774 0.40668-1.1244 0.69968-3.9061 1.9945-5.3113 2.5268-9.1346 3.3493-1.2275 0.27734-1.7971 0.45165-1.9178 0.62136-0.02647 0.03686-0.03133 0.07337-0.01753 0.11094 0.27828 0.76133 2.0021 0.90172 5.0519 0.39695 2.8722-0.47952 6.078-1.6834 8.4088-3.1629 0.8157-0.52646 1.2462-0.69522 1.1056-0.49785-0.06302 0.08847-0.24121 0.25101-0.55121 0.4877-0.84778 0.646-3.3182 1.8415-5.5366 2.6833-1.0482 0.38438-1.9627 0.80479-2.0301 0.89765l-8.1e-4 1e-3c-0.22831 0.32263 0.47936 0.70456 1.5717 0.86584 1.2634 0.17869 3.4866-0.22188 4.6494-0.8301 0.83578-0.43704 3.3822-2.2512 4.249-3.0519 0.2405-0.24154 0.50588-0.38997 0.57797-0.33106 0.04221 0.03511 0.05925 0.07092-0.0021 0.15693-0.14852 0.20853-0.757 0.70614-2.5835 2.1598-1.1356 0.92197-2.1841 1.8176-2.3265 2.0175-0.32865 0.46134-0.25527 0.93423 0.19195 1.2985 0.96654 0.78734 2.5851 0.30754 4.0828-1.2187 1.5109-1.5305 1.9743-1.9564 1.533-1.337-0.1569 0.22012-0.42789 0.57224-0.80683 1.0537l-1.4087 1.8173 0.0931 0.82926c0.06992 0.44582 0.2483 0.93138 0.407 1.0606 0.46161 0.37599 1.9084 0.16921 2.4511-0.33632 0.04874-0.04845 0.1097-0.12428 0.18032-0.22363 0.49427-0.69378 1.4624-2.5181 2.0313-3.9046 0.06484-0.1485 0.10817-0.24224 0.13744-0.28366l7.86e-4 -1e-3c0.05135-0.07162 0.05921 0.01755 0.06477 0.25593 0.01678 0.23241-0.36586 1.2815-0.83573 2.357-0.89523 1.9926-1.0127 2.8933-0.47897 3.3281 0.38947 0.31736 0.99414 0.39664 1.4192 0.18396 0.09064-0.04353 0.19173-0.14569 0.29919-0.29665 0.42656-0.59868 0.95548-1.9653 1.349-3.4887 0.19602-0.7753 0.3511-1.2503 0.45718-1.3997l6.74e-4 -1e-3c0.06996-0.09795 0.11857-0.05336 0.14333 0.14078 0.02088 0.1629-0.16518 1.0319-0.39854 1.9354-0.53353 2.0928-0.46684 3.1192 0.24102 3.5014 0.59599 0.31526 1.3794 0.17588 1.719-0.30087 0.39449-0.55367 0.6472-2.3162 0.61887-4.3564-0.0048-1.0441 0.0075-1.9538 0.05067-2.023l6.75e-4 -1e-3c0.04743-0.0316 0.18953 1.0788 0.33357 2.5076 0.21638 2.0961 0.33652 2.6315 0.66832 2.9017 0.56819 0.46288 1.7654 0.24961 2.2059-0.36862 0.01789-0.02457 0.03467-0.05126 0.05019-0.07794 0.26351-0.46583 0.19248-0.71814-0.94139-3.3185-1.4553-3.397-1.886-4.7443-2.114-6.7283-0.10406-0.81392-0.24852-1.5391-0.32063-1.5978-0.07212-0.05863-0.56876-0.0016-1.0839 0.1134-1.1427 0.25979-2.3116 0.01404-3.1448-0.64186-0.31739-0.25839-1.0047-1.0857-1.5293-1.8533-0.51018-0.75588-1.4387-1.8525-2.0296-2.431-1.0705-0.99349-1.1969-1.0722-2.4344-1.3511-2.7461-0.65713-4.7443-0.31631-10.328 1.6969-1.8297 0.64818-4.0222 1.3896-4.8857 1.6098-2.0103 0.54967-6.8622 1.312-8.3477 1.317-1.5869 0.021042-4.2759-0.4939-6.3662-1.1759-1.436-0.45684-2.0933-0.5654-2.285-0.2963z"/>
  <path d="m98.938 43.457c0.07626 0.10708 0.0789 0.27383 0.02759 0.50241-0.19069 0.88438-2.8644 2.1874-5.8424 2.8393-3.8066 0.86493-11.134-0.04388-16.58-2.0237-1.1617-0.41461-2.1198-0.7034-2.1302-0.62209-6.6e-4 7e-3 0.0016 0.01053 0.0067 0.01755 0.20034 0.28121 4.6888 1.8717 6.6583 2.3282 3.8382 0.90748 9.0572 1.2251 11.616 0.72053 0.4014-0.0818 0.66653-0.0316 0.77849 0.12498 0.01001 0.01404 0.01902 0.02808 0.02684 0.04564 0.11011 0.25066-0.04448 0.44937-0.88126 1.131-0.89439 0.7285-1.2089 0.8631-2.5081 1.1194-0.82158 0.15868-2.3572 0.24329-3.4227 0.18782-3.5552-0.19028-9.6398-1.7227-12.622-3.1572-1.7403-0.84256-2.1723-1.001-2.2144-0.77214-3.91e-4 7e-3 0.0029 0.01404 0.0097 0.02457 0.17227 0.24188 2.6344 1.3657 4.6545 2.1064 1.9386 0.70522 5.1314 1.5067 7.8513 1.9644 1.5785 0.26716 2.3574 0.47029 2.5469 0.73626 0.1248 0.17518-6e-3 0.37764-0.33264 0.64365-1.0099 0.82262-2.89 0.87163-6.3429 0.18466-2.8219-0.56898-5.0617-1.3448-7.9066-2.7457-1.1046-0.55837-2.0124-0.93668-2.0229-0.85531-0.0022 7e-3 0.0013 0.01755 0.01012 0.02808 0.07581 0.10637 0.54774 0.40668 1.1244 0.69968 3.9061 1.9945 5.3113 2.5268 9.1346 3.3493 1.2275 0.27734 1.7971 0.45165 1.9178 0.62136 0.02647 0.03686 0.03133 0.07337 0.01753 0.11094-0.27828 0.76133-2.0021 0.90172-5.0519 0.39695-2.8722-0.47952-6.078-1.6834-8.4088-3.1629-0.8157-0.52646-1.2462-0.69522-1.1056-0.49785 0.06302 0.08847 0.24121 0.25101 0.55122 0.4877 0.84778 0.646 3.3182 1.8415 5.5366 2.6833 1.0482 0.38438 1.9627 0.80479 2.0301 0.89765l8.09e-4 1e-3c0.22831 0.32263-0.47936 0.70456-1.5717 0.86584-1.2634 0.17869-3.4866-0.22188-4.6494-0.8301-0.83578-0.43704-3.3822-2.2512-4.249-3.0519-0.2405-0.24154-0.50588-0.38997-0.57797-0.33106-0.0422 0.03511-0.05925 0.07092 0.0021 0.15693 0.14852 0.20853 0.757 0.70614 2.5835 2.1598 1.1356 0.92197 2.1841 1.8176 2.3265 2.0175 0.32865 0.46134 0.25527 0.93423-0.19195 1.2985-0.96654 0.78734-2.5851 0.30754-4.0828-1.2187-1.5109-1.5305-1.9743-1.9564-1.533-1.337 0.1569 0.22012 0.42789 0.57224 0.80683 1.0537l1.4087 1.8173-0.0931 0.82926c-0.06992 0.44582-0.2483 0.93138-0.40701 1.0606-0.46161 0.37599-1.9084 0.16921-2.4511-0.33632-0.04874-0.04845-0.1097-0.12428-0.18032-0.22363-0.49427-0.69378-1.4624-2.5181-2.0313-3.9046-0.06484-0.1485-0.10817-0.24224-0.13744-0.28366l-7.87e-4 -1e-3c-0.05135-0.07162-0.05921 0.01755-0.06477 0.25593-0.01678 0.23241 0.36586 1.2815 0.83573 2.357 0.89523 1.9926 1.0127 2.8933 0.47897 3.3281-0.38947 0.31736-0.99414 0.39664-1.4192 0.18396-0.09064-0.04353-0.19173-0.14569-0.29919-0.29665-0.42656-0.59868-0.95548-1.9653-1.349-3.4887-0.19602-0.7753-0.3511-1.2503-0.45718-1.3997l-6.74e-4 -1e-3c-0.06996-0.09795-0.11857-0.05336-0.14333 0.14078-0.02088 0.1629 0.16518 1.0319 0.39854 1.9354 0.53353 2.0928 0.46684 3.1192-0.24102 3.5014-0.59599 0.31526-1.3794 0.17588-1.719-0.30087-0.39449-0.55367-0.6472-2.3162-0.61887-4.3564 0.0048-1.0441-0.0075-1.9538-0.05067-2.023l-6.75e-4 -1e-3c-0.04743-0.0316-0.18953 1.0788-0.33357 2.5076-0.21638 2.0961-0.33652 2.6315-0.66832 2.9017-0.56819 0.46288-1.7654 0.24961-2.2059-0.36862-0.01789-0.02457-0.03467-0.05126-0.05019-0.07794-0.26351-0.46583-0.19248-0.71814 0.94139-3.3185 1.4553-3.397 1.886-4.7443 2.114-6.7283 0.10406-0.81392 0.24852-1.5391 0.32063-1.5978 0.07212-0.05863 0.56876-0.0016 1.0839 0.1134 1.1427 0.25979 2.3116 0.01404 3.1448-0.64186 0.31739-0.25839 1.0047-1.0857 1.5293-1.8533 0.51018-0.75588 1.4387-1.8525 2.0296-2.431 1.0705-0.99349 1.1969-1.0722 2.4344-1.3511 2.7461-0.65713 4.7443-0.31631 10.328 1.6969 1.8297 0.64818 4.0222 1.3896 4.8857 1.6098 2.0103 0.54967 6.8622 1.312 8.3477 1.317 1.587 0.02104 4.276-0.4939 6.3663-1.1759 1.436-0.45684 2.0933-0.5654 2.285-0.2963z"/>
 </g>
</svg>
